<svg xmlns="http://www.w3.org/2000/svg" xmlns:xlink="http://www.w3.org/1999/xlink" xmlns:lucid="lucid" width="2176.1" height="596"><g transform="translate(538.10075911629 -392)" lucid:page-tab-id="0_0"><path d="M-454 395h2088M-453.97 395H-455M1633.97 395h1.03M-455.17 692.9h2086.85M-455.14 692.9h-1.03M1631.65 692.9h1.03M-464 985h2096M-463.97 985H-465M1631.97 985h1.03" stroke="#000" stroke-width="2" fill="none"/><path d="M-509.1 669.38a8 8 0 0 1-8-8V427.34a8 8 0 0 1 8-8h124.17a8 8 0 0 1 8 8v234.04a8 8 0 0 1-8 8z" stroke="#000" stroke-opacity="0" stroke-width="2" fill="#ccc"/><use xlink:href="#a" transform="matrix(6.123233995736766e-17,-1,1,6.123233995736766e-17,-512.10075911629,664.3817998468892) translate(40.588975694444514 72.18142361111109)"/><path d="M-367.32 618.13a8 8 0 0 1 8-8h223.73a8 8 0 0 1 8 8v59.1a8 8 0 0 1-8 8H-359.3a8 8 0 0 1-8-8z" stroke="#000" stroke-opacity="0" fill-opacity="0"/><use xlink:href="#b" transform="matrix(1,0,0,1,-362.3193797725993,615.1331096840624) translate(12.65299479166677 41.49392361111108)"/><use xlink:href="#c" transform="matrix(1,0,0,1,-362.3193797725993,615.1331096840624) translate(187.99804687499991 41.49392361111108)"/><path d="M-367.32 427.34a8 8 0 0 1 8-8h223.73a8 8 0 0 1 8 8v59.1a8 8 0 0 1-8 8H-359.3a8 8 0 0 1-8-8z" stroke="#000" stroke-opacity="0" fill-opacity="0"/><use xlink:href="#b" transform="matrix(1,0,0,1,-362.3193797725993,424.33883816789734) translate(12.65299479166677 41.49392361111108)"/><use xlink:href="#d" transform="matrix(1,0,0,1,-362.3193797725993,424.33883816789734) translate(187.99804687499991 41.49392361111108)"/><path d="M-367.32 522.74a8 8 0 0 1 8-8h223.73a8 8 0 0 1 8 8v59.08a8 8 0 0 1-8 8H-359.3a8 8 0 0 1-8-8z" stroke="#000" stroke-opacity="0" fill-opacity="0"/><use xlink:href="#b" transform="matrix(1,0,0,1,-362.3193797725993,519.7359739259798) translate(12.65299479166677 41.49392361111108)"/><use xlink:href="#e" transform="matrix(1,0,0,1,-362.3193797725993,519.7359739259798) translate(187.99804687499991 41.49392361111108)"/><path d="M-509.1 965.6a8 8 0 0 1-8-8V723.56a8 8 0 0 1 8-8h124.17a8 8 0 0 1 8 8V957.6a8 8 0 0 1-8 8z" stroke="#000" stroke-opacity="0" stroke-width="2" fill="#ccc"/><use xlink:href="#f" transform="matrix(6.123233995736766e-17,-1,1,6.123233995736766e-17,-512.1007591162901,960.6046773618757) translate(45.58029513888896 43.52517361111108)"/><use xlink:href="#g" transform="matrix(6.123233995736766e-17,-1,1,6.123233995736766e-17,-512.1007591162901,960.6046773618757) translate(52.073142361111174 108.61197916666657)"/><path d="M-367.32 899.65a8 8 0 0 1 8-8h223.73a8 8 0 0 1 8 8v59.1a8 8 0 0 1-8 8H-359.3a8 8 0 0 1-8-8z" stroke="#000" stroke-opacity="0" fill-opacity="0"/><use xlink:href="#b" transform="matrix(1,0,0,1,-362.3193797725993,896.6551201597973) translate(12.65299479166677 41.49392361111108)"/><use xlink:href="#c" transform="matrix(1,0,0,1,-362.3193797725993,896.6551201597973) translate(187.99804687499991 41.49392361111108)"/><path d="M-367.32 722.42a8 8 0 0 1 8-8h223.73a8 8 0 0 1 8 8v59.1a8 8 0 0 1-8 8H-359.3a8 8 0 0 1-8-8z" stroke="#000" stroke-opacity="0" fill-opacity="0"/><use xlink:href="#b" transform="matrix(1,0,0,1,-362.3193797725993,719.4244673294064) translate(12.65299479166677 41.49392361111108)"/><use xlink:href="#d" transform="matrix(1,0,0,1,-362.3193797725993,719.4244673294064) translate(187.99804687499991 41.49392361111108)"/><path d="M-367.32 811.04a8 8 0 0 1 8-8h223.73a8 8 0 0 1 8 8v59.1a8 8 0 0 1-8 8H-359.3a8 8 0 0 1-8-8z" stroke="#000" stroke-opacity="0" fill-opacity="0"/><use xlink:href="#b" transform="matrix(1,0,0,1,-362.3193797725993,808.0397937446019) translate(12.65299479166677 41.49392361111108)"/><use xlink:href="#e" transform="matrix(1,0,0,1,-362.3193797725993,808.0397937446019) translate(187.99804687499991 41.49392361111108)"/><path d="M852.68 618.13a8 8 0 0 1 8-8h704a8 8 0 0 1 8 8v59.1a8 8 0 0 1-8 8h-704a8 8 0 0 1-8-8z" stroke="#000" stroke-opacity="0" stroke-width="2" fill="#e5e5e5"/><use xlink:href="#h" transform="matrix(1,0,0,1,857.6806202274005,615.1331096840627) translate(118.961371527778 41.49392361111108)"/><use xlink:href="#i" transform="matrix(1,0,0,1,857.6806202274005,615.1331096840627) translate(330.4435763888889 41.49392361111108)"/><use xlink:href="#j" transform="matrix(1,0,0,1,857.6806202274005,615.1331096840627) translate(387.34461805555554 41.49392361111108)"/><use xlink:href="#c" transform="matrix(1,0,0,1,857.6806202274005,615.1331096840627) translate(562.6896701388887 41.49392361111108)"/><path d="M612.68 522.74a8 8 0 0 1 8-8h704a8 8 0 0 1 8 8v59.08a8 8 0 0 1-8 8h-704a8 8 0 0 1-8-8z" stroke="#000" stroke-opacity="0" stroke-width="2" fill="#e5e5e5"/><use xlink:href="#h" transform="matrix(1,0,0,1,617.6806202274007,519.7359739259798) translate(118.461371527778 41.49392361111108)"/><use xlink:href="#i" transform="matrix(1,0,0,1,617.6806202274007,519.7359739259798) translate(329.9435763888889 41.49392361111108)"/><use xlink:href="#j" transform="matrix(1,0,0,1,617.6806202274007,519.7359739259798) translate(386.84461805555554 41.49392361111108)"/><use xlink:href="#e" transform="matrix(1,0,0,1,617.6806202274007,519.7359739259798) translate(562.1896701388887 41.49392361111108)"/><path d="M-95.1 427.34a8 8 0 0 1 8-8h931.78a8 8 0 0 1 8 8v59.1a8 8 0 0 1-8 8H-87.1a8 8 0 0 1-8-8z" stroke="#000" stroke-opacity="0" stroke-width="2" fill="#e5e5e5"/><use xlink:href="#h" transform="matrix(1,0,0,1,-90.09886535366775,424.3388381678971) translate(232.461371527778 41.49392361111108)"/><use xlink:href="#i" transform="matrix(1,0,0,1,-90.09886535366775,424.3388381678971) translate(443.9435763888889 41.49392361111108)"/><use xlink:href="#j" transform="matrix(1,0,0,1,-90.09886535366775,424.3388381678971) translate(500.84461805555554 41.49392361111108)"/><use xlink:href="#d" transform="matrix(1,0,0,1,-90.09886535366775,424.3388381678971) translate(676.1896701388887 41.49392361111108)"/><path d="M852.14 899.65a8 8 0 0 1 8-8h703.73a8 8 0 0 1 8 8v59.1a8 8 0 0 1-8 8H860.14a8 8 0 0 1-8-8z" stroke="#000" stroke-opacity="0" stroke-width="2" fill="#e5e5e5"/><use xlink:href="#h" transform="matrix(1,0,0,1,857.1426013657183,896.6551201597974) translate(118.461371527778 41.49392361111108)"/><use xlink:href="#i" transform="matrix(1,0,0,1,857.1426013657183,896.6551201597974) translate(329.9435763888889 41.49392361111108)"/><use xlink:href="#j" transform="matrix(1,0,0,1,857.1426013657183,896.6551201597974) translate(386.84461805555554 41.49392361111108)"/><use xlink:href="#c" transform="matrix(1,0,0,1,857.1426013657183,896.6551201597974) translate(562.1896701388887 41.49392361111108)"/><path d="M611.87 811.04a8 8 0 0 1 8-8h704a8 8 0 0 1 8 8v59.1a8 8 0 0 1-8 8h-704a8 8 0 0 1-8-8z" stroke="#000" stroke-opacity="0" stroke-width="2" fill="#e5e5e5"/><use xlink:href="#h" transform="matrix(1,0,0,1,616.8735919348774,808.0397937446019) translate(118.461371527778 41.49392361111108)"/><use xlink:href="#i" transform="matrix(1,0,0,1,616.8735919348774,808.0397937446019) translate(329.9435763888889 41.49392361111108)"/><use xlink:href="#j" transform="matrix(1,0,0,1,616.8735919348774,808.0397937446019) translate(386.84461805555554 41.49392361111108)"/><use xlink:href="#e" transform="matrix(1,0,0,1,616.8735919348774,808.0397937446019) translate(562.1896701388887 41.49392361111108)"/><path d="M-95.37 722.42a8 8 0 0 1 8-8h932.05a8 8 0 0 1 8 8v59.1a8 8 0 0 1-8 8H-87.37a8 8 0 0 1-8-8z" stroke="#000" stroke-opacity="0" stroke-width="2" fill="#e5e5e5"/><use xlink:href="#h" transform="matrix(1,0,0,1,-90.36787478450901,719.4244673294063) translate(232.961371527778 41.49392361111108)"/><use xlink:href="#i" transform="matrix(1,0,0,1,-90.36787478450901,719.4244673294063) translate(444.4435763888889 41.49392361111108)"/><use xlink:href="#j" transform="matrix(1,0,0,1,-90.36787478450901,719.4244673294063) translate(501.34461805555554 41.49392361111108)"/><use xlink:href="#d" transform="matrix(1,0,0,1,-90.36787478450901,719.4244673294063) translate(676.6896701388887 41.49392361111108)"/><path d="M608.04 984l.26-19.34m.27-19.34l.53-38.68m.26-19.34l.53-38.68m.25-19.35l.53-38.68m.27-19.35l.52-38.68m.27-19.34l.26-19.34M608.04 983.97V985M612 693.9v-1M119.46 985h-.77M119.43 985h1.03M118.72 985h-1.03M849.9 984l.15-19.6m.16-19.6l.33-39.2m.17-19.6l.32-39.2m.16-19.6l.32-39.2m.16-19.6l.33-39.2m.15-19.6l.32-39.2m.16-19.6l.33-39.2m.16-19.6l.32-39.2m.16-19.6l.32-39.2m.17-19.6l.3-39.2m.17-19.6l.16-19.6M849.9 983.97l-.02 1.03M854.73 396.03V395M1088.3 985h1.9M1088.32 985h-1.02M1090.18 985h1.03M1331.68 984l.06-19.34m.06-19.34l.13-38.68m.06-19.34l.12-38.68m.06-19.35l.13-38.68m.07-19.35l.12-38.68m.06-19.34l.06-19.34M1331.68 983.97V985M1332.62 693.9v-1M1576.87 979.33l.06 4.67M1576.87 979.36l-.02-1.03M1576.92 983.97l.02 1.03" stroke="#b2b2b2" stroke-width="2" fill="none"/><g opacity=".5"><path d="M-95.37 720.42a6 6 0 0 1 6-6h695.24a6 6 0 0 1 6 6v63.1a6 6 0 0 1-6 6H-89.37a6 6 0 0 1-6-6z" stroke="#3a414a" fill="#3278cc"/></g><g opacity=".5"><path d="M-94.83 425.34a6 6 0 0 1 6-6h935.78a6 6 0 0 1 6 6v63.1a6 6 0 0 1-6 6H-88.83a6 6 0 0 1-6-6z" stroke="#3a414a" fill="#3278cc"/></g><g opacity=".5"><path d="M612.68 720.42a6 6 0 0 1 6-6H846.4a6 6 0 0 1 6 6v63.1a6 6 0 0 1-6 6H618.7a6 6 0 0 1-6-6z" stroke="#3a414a" fill="#e81313"/></g><g opacity=".5"><path d="M612.68 809.48a6 6 0 0 1 6-6h228.27a6 6 0 0 1 6 6v62.65a6 6 0 0 1-6 6H618.68a6 6 0 0 1-6-6z" stroke="#3a414a" fill="#e81313"/></g><g opacity=".5"><path d="M1332.68 898.15a6 6 0 0 1 6-6h227.73a6 6 0 0 1 6 6v62.1a6 6 0 0 1-6 6H1338.7a6 6 0 0 1-6-6z" stroke="#3a414a" fill="#54c45e"/></g><g opacity=".5"><path d="M851.87 898.98a6 6 0 0 1 6-6h468a6 6 0 0 1 6 6v61.76a6 6 0 0 1-6 6h-468a6 6 0 0 1-6-6z" stroke="#000" fill="#fcce14"/></g><g opacity=".5"><path d="M-94.3 425.34a6 6 0 0 1 6-6H846.7a6 6 0 0 1 6 6v63.1a6 6 0 0 1-6 6H-88.3a6 6 0 0 1-6-6z" stroke="#3a414a" fill="#fd4d4d"/></g><g opacity=".5"><path d="M852.14 809.04a6 6 0 0 1 6-6h467.73a6 6 0 0 1 6 6v62.65a6 6 0 0 1-6 6H858.14a6 6 0 0 1-6-6z" stroke="#000" fill="#fcce14"/></g><g opacity=".5"><path d="M852.68 616.13a6 6 0 0 1 6-6h708a6 6 0 0 1 6 6v63.1a6 6 0 0 1-6 6h-708a6 6 0 0 1-6-6z" stroke="#000" fill="#f6c500"/></g><g opacity=".5"><path d="M852.95 616.13a6 6 0 0 1 6-6h707.46a6 6 0 0 1 6 6v63.1a6 6 0 0 1-6 6H858.96a6 6 0 0 1-6-6z" stroke="#3a414a" fill="#54c45e"/></g><defs><path d="M1159-244C1089-98 972 28 758 28c-309 0-479-201-563-448-63-186-62-421 3-606 63-180 169-318 319-403 71-39 143-59 217-59 204 0 330 91 417 194h11l102-186h44v640h-48c-39-227-134-415-288-521-104-71-251-87-362-21-140 82-203 263-226 457-41 337 11 686 204 833 50 37 107 56 170 56 180 0 334-147 334-312v-200c0-53-26-80-78-80H790v-64h688v64h-124c-52 0-78 27-78 80V28h-48l-50-272h-19" id="k"/><path d="M599-699c0-45 49-81 49-120 0-22-13-33-40-33-38 0-74 23-110 68-65 82-116 237-116 380v298c-4 78 108 41 174 50V0H62v-56c66-9 174 28 174-50v-688c4-78-108-41-174-50v-56l320-12v213l10 4c61-147 143-221 248-221 112 0 162 69 166 176 2 63-47 137-110 137-59 0-97-40-97-96" id="l"/><path d="M508 16C252 22 84-191 84-450s168-474 424-466c251 7 335 198 344 448H254c-4 278 80 431 254 428 196-3 273-139 298-311h58C841-139 739 10 508 16zm174-623c0-130-41-253-174-253-153 0-237 112-252 336h345c60 1 81-27 81-83" id="m"/><path d="M477 16C245 16 84-204 84-450s161-466 393-466c121 0 214 61 279 182l6-2v-566c-1-73-29-101-102-102H455v-56l453-12v1366c-4 78 108 41 174 50V0H762v-162l-6-2C685-44 592 16 477 16zm285-466c0-199-113-410-285-410-149 0-223 137-223 410S328-40 477-40c171 0 285-211 285-410" id="n"/><path d="M188 552C89 552 6 474 6 374c0-78 52-142 128-142 80 0 120 99 75 160-13 29-58 30-67 54-1 37 30 50 63 50 73 0 129-63 151-123L482 25C377-237 278-503 167-762c-23-54-67-88-151-82v-56h450v56c-60 2-147-14-147 42 0 17 4 36 11 55l225 571 185-511c21-52 24-157-50-157H576v-56h428v56c-106-7-154 51-180 121L418 381c-42 114-119 171-230 171" id="o"/><g id="a"><use transform="matrix(0.024956597222222203,0,0,0.024956597222222203,0,0)" xlink:href="#k"/><use transform="matrix(0.024956597222222203,0,0,0.024956597222222203,36.736111111111086,0)" xlink:href="#l"/><use transform="matrix(0.024956597222222203,0,0,0.024956597222222203,58.84765624999996,0)" xlink:href="#m"/><use transform="matrix(0.024956597222222203,0,0,0.024956597222222203,82.30685763888883,0)" xlink:href="#m"/><use transform="matrix(0.024956597222222203,0,0,0.024956597222222203,105.7660590277777,0)" xlink:href="#n"/><use transform="matrix(0.024956597222222203,0,0,0.024956597222222203,133.8671874999999,0)" xlink:href="#o"/></g><path d="M437-260C405-135 467-58 594-64h92V0H36v-64h74c103 0 178-65 224-194l440-1230h62l381 1204c22 69 48 122 74 162 44 67 97 59 191 58V0H810v-64h166c59 1 96-60 76-124L949-512H519c-28 86-58 159-82 252zm104-316h388l-186-588" id="p"/><path d="M476 16C294 21 214-90 214-254v-540c4-78-108-41-174-50v-56l320-12v684c2 107 26 183 134 180 96-3 135-62 190-123 38-42 88-162 88-241v-382c4-78-108-41-174-50v-56l320-12v806c-4 78 108 41 174 50V0H772v-201l-8-5C713-108 608 13 476 16" id="q"/><path d="M452 16c-117 0-222-83-222-206v-654H56v-56c190-26 230-205 232-420h88v420h286v56H376v654c2 98 24 140 124 142 120 2 190-106 190-227v-225h48v242C737-89 632 16 452 16" id="r"/><path d="M640-852c-109 2-224 161-272 268v478c-4 78 108 41 174 50V0H48v-56c66-9 174 28 174-50v-1248c4-78-108-41-174-50v-56l320-12v762l8 5c89-141 185-211 287-211 130 0 192 48 237 128 25 45 36 93 36 142v540c-4 78 108 41 174 50V0H616v-56c66-9 174 28 174-50v-566c-1-104-43-182-150-180" id="s"/><path d="M508 16C252 16 84-191 84-450s168-466 424-466 424 207 424 466S764 16 508 16zM254-450c0 273 85 410 254 410s254-137 254-410-85-410-254-410-254 137-254 410" id="t"/><g id="b"><use transform="matrix(0.024956597222222203,0,0,0.024956597222222203,0,0)" xlink:href="#p"/><use transform="matrix(0.024956597222222203,0,0,0.024956597222222203,37.335069444444414,0)" xlink:href="#q"/><use transform="matrix(0.024956597222222203,0,0,0.024956597222222203,65.68576388888883,0)" xlink:href="#r"/><use transform="matrix(0.024956597222222203,0,0,0.024956597222222203,85.90060763888881,0)" xlink:href="#s"/><use transform="matrix(0.024956597222222203,0,0,0.024956597222222203,114.70052083333323,0)" xlink:href="#t"/><use transform="matrix(0.024956597222222203,0,0,0.024956597222222203,140.05642361111097,0)" xlink:href="#l"/></g><path d="M712-767c177 41 328 170 328 380 0 182-115 310-246 367-132 58-307 66-444 8-111-46-219-145-222-288-2-104 66-206 164-206 66 0 115 42 114 106 0 63-28 103-85 118-46 13-69 34-69 64 0 106 170 182 296 182 184 0 291-157 288-340-3-196-54-356-246-364-65-3-124 24-182 22-34 0-69-14-69-49s35-49 69-49c63-1 113 13 182 12 128-2 230-156 230-302 0-176-103-318-274-318-114 0-252 62-252 162 0 51 30 60 71 79 56 26 84 61 84 110 0 61-43 101-102 101-99 0-179-92-177-194 3-190 194-322 403-322 234 0 434 148 427 375-6 189-148 274-288 331v15" id="u"/><use transform="matrix(0.024956597222222203,0,0,0.024956597222222203,0,0)" xlink:href="#u" id="c"/><path d="M210 0v-64h196c52 0 78-27 78-80v-1112c0-53-26-80-78-80H210v-64c162-7 300-27 414-60h44v1316c0 53 26 80 78 80h196V0H210" id="v"/><use transform="matrix(0.024956597222222203,0,0,0.024956597222222203,0,0)" xlink:href="#v" id="d"/><path d="M317-880c-108 0-186-102-181-210 11-249 159-389 416-398 288-10 506 225 407 518-50 149-168 271-267 374-122 127-304 269-387 404l5 16h477c70 0 104-27 116-84l43-204h72L928 0H142v-48c150-303 496-521 613-874 73-220 1-507-227-502-184 4-283 113-296 286-1 22 15 45 36 45 26 0 58-18 79-18 61 0 103 45 103 103 0 76-57 128-133 128" id="w"/><use transform="matrix(0.024956597222222203,0,0,0.024956597222222203,0,0)" xlink:href="#w" id="e"/><path d="M418-170c0 72 32 106 104 106h146V0H80v-64h146c72 0 104-34 104-106v-1146c8-119-150-69-250-80v-64h476L988-328l444-1132h482v64c-100 10-250-39-250 80v1172c-8 119 150 69 250 80V0h-684v-64c100-10 250 39 250-80v-1128h-30L954-22h-40L430-1272h-12v1102" id="x"/><path d="M48 0v-56c66-9 174 28 174-50v-1248c4-78-108-41-174-50v-56l320-12v1366c-4 78 108 41 174 50V0H48" id="y"/><path d="M80 0v-56c66-9 174 28 174-50v-688c4-78-108-41-174-50v-56l320-12v806c-4 78 108 41 174 50V0H80zm246-1234c-67 0-124-57-124-124s57-124 124-124 124 57 124 124-57 124-124 124" id="z"/><path d="M136-346v-132h628v132H136" id="A"/><g id="f"><use transform="matrix(0.024956597222222203,0,0,0.024956597222222203,0,0)" xlink:href="#x"/><use transform="matrix(0.024956597222222203,0,0,0.024956597222222203,48.765190972222186,0)" xlink:href="#q"/><use transform="matrix(0.024956597222222203,0,0,0.024956597222222203,77.1158854166666,0)" xlink:href="#y"/><use transform="matrix(0.024956597222222203,0,0,0.024956597222222203,91.74045138888881,0)" xlink:href="#r"/><use transform="matrix(0.024956597222222203,0,0,0.024956597222222203,111.9552951388888,0)" xlink:href="#z"/><use transform="matrix(0.024956597222222203,0,0,0.024956597222222203,127.37847222222213,0)" xlink:href="#A"/></g><path d="M1172-687c24-61 26-157-48-157h-102v-56h420v56c-122-3-167 42-194 121L992 18h-50L719-629 494 18h-50c-92-260-172-526-273-780-22-55-70-88-155-82v-56h440v56c-57 1-135-10-135 42 0 17 4 36 11 55l182 530 160-470c23-96-53-166-160-157v-56h440v56c-57 1-135-10-135 42 0 17 4 36 11 55l182 530" id="B"/><path d="M654-852c-109 2-224 161-272 268v478c-4 78 108 41 174 50V0H62v-56c66-9 174 28 174-50v-688c4-78-108-41-174-50v-56l320-12v202l8 5c89-141 185-211 287-211 130 0 192 48 237 128 25 45 36 93 36 142v540c-4 78 108 41 174 50V0H630v-56c66-9 174 28 174-50v-566c-1-104-43-182-150-180" id="C"/><g id="g"><use transform="matrix(0.024956597222222203,0,0,0.024956597222222203,0,0)" xlink:href="#t"/><use transform="matrix(0.024956597222222203,0,0,0.024956597222222203,24.25781249999998,0)" xlink:href="#B"/><use transform="matrix(0.024956597222222203,0,0,0.024956597222222203,61.1436631944444,0)" xlink:href="#C"/><use transform="matrix(0.024956597222222203,0,0,0.024956597222222203,90.29296874999993,0)" xlink:href="#m"/><use transform="matrix(0.024956597222222203,0,0,0.024956597222222203,113.7521701388888,0)" xlink:href="#l"/></g><path d="M512-144c-6 117 152 71 254 80V0H78v-64c101-10 252 39 252-80v-1172c8-119-152-70-252-80v-64h756c221 2 374 94 443 246 21 46 31 93 31 142 0 216-151 318-354 352v13c188 51 238 212 268 427 10 71 19 147 62 186 65 59 134-27 147-90 13-62 24-114 27-185h44c-2 164-28 308-130 374-53 34-154 25-210 3-33-13-62-41-85-82-37-65-60-164-71-298-11-139-25-253-116-306-33-19-45-15-96-16H512v550zm592-928c0-210-115-323-318-324H512v638h300c202-2 292-106 292-314" id="D"/><path d="M340 16C199 16 88-48 88-190c0-125 93-221 279-290 84-31 175-57 273-79 9-169-36-301-192-301-53 0-92 6-115 18-34 17-51 37-51 60 0 47 66 101 61 143-6 51-29 87-87 87-70 0-122-59-120-128 4-144 137-240 302-236 228 6 348 132 348 354v435c-2 30 23 55 48 55 92 0 90-103 90-197 0-31-2-76-6-136h44c8 177 32 421-156 421-106 0-168-62-166-172l-6-3C558-70 487 16 340 16zm-82-228c0 80 66 156 146 156 72 0 151-59 236-177v-284c-93 20-177 51-252 93-87 49-130 119-130 212" id="E"/><path d="M630-56c45-1 110 10 110-32 0-17-12-41-36-72L487-440l-119 92v242c-4 78 108 41 174 50V0H48v-56c66-9 174 28 174-50v-1248c4-78-108-41-174-50v-56l320-12v1056l362-284c24-19 36-45 36-78 0-39-40-68-80-68H564v-54h544v54c-104 4-142 27-213 84L597-524l275 344c60 71 116 123 238 124V0H630v-56" id="F"/><path d="M711-44c213-12 403 180 295 388-100 194-429 248-710 182-113-27-216-75-216-205 0-83 75-161 226-236v-6C210 57 128 7 128-109c0-100 116-153 210-163v-8c-113-60-170-156-170-289 0-224 163-347 388-347 143 0 264 59 326 147 21-67 63-145 145-147 91-2 155 56 155 137 0 75-35 147-108 147-86 0-121-111-54-158 24-17 35-33 35-45 0-17-15-25-44-25-43 0-77 44-100 133 22 45 33 98 33 158 0 224-163 347-388 347-114 0-252-19-328 36-26 19-40 39-40 64 2 77 82 78 160 78h363zM393 90c-93 41-189 89-189 221 0 163 182 185 350 185 139 0 259-44 334-118 62-61 93-167 24-229-101-91-336-50-519-59zm163-950c-152 0-236 140-236 291s84 291 236 291 236-140 236-291-84-291-236-291" id="G"/><g id="h"><use transform="matrix(0.024956597222222203,0,0,0.024956597222222203,0,0)" xlink:href="#D"/><use transform="matrix(0.024956597222222203,0,0,0.024956597222222203,38.18359374999997,0)" xlink:href="#E"/><use transform="matrix(0.024956597222222203,0,0,0.024956597222222203,63.938802083333286,0)" xlink:href="#C"/><use transform="matrix(0.024956597222222203,0,0,0.024956597222222203,93.08810763888881,0)" xlink:href="#F"/><use transform="matrix(0.024956597222222203,0,0,0.024956597222222203,122.78645833333324,0)" xlink:href="#z"/><use transform="matrix(0.024956597222222203,0,0,0.024956597222222203,138.20963541666654,0)" xlink:href="#C"/><use transform="matrix(0.024956597222222203,0,0,0.024956597222222203,167.3589409722221,0)" xlink:href="#G"/></g><path d="M651-1316c57-48 12-116-61-116-139 0-208 105-208 314v218h218v56H382v738c-4 78 108 41 174 50V0H62v-56c66-9 174 28 174-50v-738H62v-56h174v-188c11-236 127-390 366-400 107-5 222 103 222 210 0 71-53 138-122 138-52 0-93-40-92-90 0-31 12-62 41-86" id="H"/><g id="i"><use transform="matrix(0.024956597222222203,0,0,0.024956597222222203,0,0)" xlink:href="#t"/><use transform="matrix(0.024956597222222203,0,0,0.024956597222222203,25.355902777777757,0)" xlink:href="#H"/></g><g id="j"><use transform="matrix(0.024956597222222203,0,0,0.024956597222222203,0,0)" xlink:href="#p"/><use transform="matrix(0.024956597222222203,0,0,0.024956597222222203,37.335069444444414,0)" xlink:href="#q"/><use transform="matrix(0.024956597222222203,0,0,0.024956597222222203,65.68576388888883,0)" xlink:href="#r"/><use transform="matrix(0.024956597222222203,0,0,0.024956597222222203,85.90060763888881,0)" xlink:href="#s"/><use transform="matrix(0.024956597222222203,0,0,0.024956597222222203,114.70052083333323,0)" xlink:href="#t"/><use transform="matrix(0.024956597222222203,0,0,0.024956597222222203,140.05642361111097,0)" xlink:href="#l"/></g></defs></g></svg>